/* XPM */
static char * bitcoin16_xpm[] = {
"16 16 5 1",
" 	c None",
".	c #231F20",
"+	c #272324",
"@	c #221E1F",
"#	c #2C2829",
"                ",
"     ..+@       ",
"    ...   .     ",
"   .        .   ",
"  .  .   .      ",
"  .    .  .  .  ",
"       .  .     ",
" .     .  .   . ",
" .     .  .   . ",
"       .  .     ",
"  .       .  .  ",
"  .  .....   .  ",
"   .        .   ",
"     .   ...    ",
"       .#..     ",
"                "};
