/* XPM */
static char * bitcoin64_xpm[] = {
"64 64 22 1",
" 	c None",
".	c #1B1718",
"+	c #231F20",
"@	c #221E1F",
"#	c #413D3E",
"$	c #292526",
"%	c #868484",
"&	c #252223",
"*	c #252122",
"=	c #120E0F",
"-	c #242021",
";	c #181415",
">	c #2A2526",
",	c #201C1D",
"'	c #535051",
")	c #0D090A",
"!	c #8A8888",
"~	c #211E1F",
"{	c #211C1D",
"]	c #2D292A",
"^	c #888687",
"/	c #191516",
"                                   .                            ",
"                       +           @#.                          ",
"                       ++         ++++                          ",
"                    +   ++        ++++                          ",
"                     + +++++++$%&++++                           ",
"                      ++++++++*=++                              ",
"                  ++ +++++++++++  +                             ",
"               ++++ ++++++++++++ +++++++                        ",
"                  +++++++++++++++  ++++++++                     ",
"             ++++++++++++++ ++   +++    +++++                   ",
"               +++++++++ +        ++      ++++                  ",
"              +++++++    +                  ++++                ",
"            +++++++                           +++               ",
"            ++++++                             +++              ",
"           ++++++                               +++             ",
"          ++++++                                 +++            ",
"         ++++++      +++++++++++++++++            +++           ",
"          ++++       +++++++++++++++++             ++           ",
"         ++++        +                ++           +++          ",
"        ++++         ++                ++           +++         ",
"        ++++         ++                 +            ++         ",
"        +++          ++      ++++        ++          +++        ",
"       ++++          ++      ++++        ++           ++        ",
"       +++           ++      ++++++      ++++         +++       ",
"       +++           ++      ++++++      ++++         +++       ",
"      ++++           ++      +++  +      ++++          ++       ",
"      +++            ++      +++ ++      ++++          +++      ",
"      +++            ++      +++ ++      ++++          +++      ",
"      +++            ++      +++ ++      ++++          +++      ",
"      +++            ++      +++ ++      ++++          +++      ",
"      +++            ++      +++ ++      ++++          +++      ",
"      +++            ++      +++ ++      ++++          +++      ",
"      +++            ++      +++ ++      ++++          +++      ",
"      +++            ++      +++ ++      ++++          +++      ",
"      +++            ++      +++ ++      ++++          +++      ",
"      +++            ++      +++ ++      ++++          +++      ",
"      +++            ++      +++ ++      ++++          +++      ",
"      +++            ++      +++++       ++++          +++      ",
"       ++            ++      +++++       ++++         ++++      ",
"       +++           ++                  ++++         +++       ",
"       +++           ++                  ++++         +++       ",
"        ++           ++                 +++++        ++++       ",
"        +++          ++                ++++          +++        ",
"         ++          +                +++++         ++++        ",
"         +++         ++++++++++++++++++++           ++++        ",
"          ++         ++++++++++++++++++++          ++++         ",
"          +++          +++++++++++++++++          ++++          ",
"           +++         +++++++++++++++++         ++++++         ",
"            +++                                 ++++++          ",
"             +++                               ++++++           ",
"              +++                             ++++++            ",
"               +++                           +++-;>+            ",
"                ++++                  +    +++++,'              ",
"                  +++       ++        + +++++++++               ",
"                   +++++    +++   +  ++++++++++++++             ",
"                     +++++++   +++++++++++++++                  ",
"                        +++++++ ++++++++++++ ++++               ",
"                            ++  +++++++++++ +                   ",
"                              ++)+++++++++++                    ",
"                           ++++$!~++++++  +                     ",
"                          ++++       +++   +                    ",
"                          ++++         ++                       ",
"                          {]+           +                       ",
"                           ^/                                   "};
