/* XPM */
static char * bitcoin128_xpm[] = {
"128 128 39 1",
" 	c None",
".	c #231F20",
"+	c #1F1B1C",
"@	c #A4A3A3",
"#	c #151112",
"$	c #221E1F",
"%	c #484445",
"&	c #6B6869",
"*	c #1B1718",
"=	c #201C1D",
"-	c #191516",
";	c #474444",
">	c #BDBCBC",
",	c #E8E7E7",
"'	c #434041",
")	c #2D2A2A",
"!	c #2A2627",
"~	c #0F0B0C",
"{	c #231E20",
"]	c #181415",
"^	c #373334",
"/	c #211C1D",
"(	c #787575",
"_	c #504D4E",
":	c #2B2627",
"<	c #242021",
"[	c #161213",
"}	c #120E0F",
"|	c #211D1E",
"1	c #555253",
"2	c #FFFFFF",
"3	c #B2B1B1",
"4	c #2D2A2B",
"5	c #1A1617",
"6	c #413E3F",
"7	c #383535",
"8	c #4D4A4B",
"9	c #B8B7B7",
"0	c #1D191A",
"                                                                      .                                                         ",
"                                             .                        .+@#                                                      ",
"                                             ..                        $%&*                                                     ",
"                                              ..                      .....                                                     ",
"                                              ...                    .......                                                    ",
"                                               ...                   .......                                                    ",
"                                    ....        ....                ........                                                    ",
"                                        ..   .   .....             ........                                                     ",
"                                          ..  ................=-=..........                                                     ",
"                                     .     ..   .............;>,'.......  .                                                     ",
"                                       .    ... ............$)!~{....  .                                                        ",
"                                        . ..........................                                                            ",
"                                .......  .........................                                                              ",
"                                     ...  ......................  .......                                                       ",
"                             ......    ......................... .............                                                  ",
"                           .      .....  ........................ ...............                                               ",
"                                     .............................    ..............                                            ",
"                                ....................................  .    ...........                                          ",
"                                .    .........................   ..... .      ..........                                        ",
"                          ............................             .....         .........                                      ",
"                        .    ...................  ..                ....            ........                                    ",
"                           .   .............. .. ..                  ...              .......                                   ",
"                             ..............   .   .                  ..                 .......                                 ",
"                          ...............          .                                     .......                                ",
"                        ................                                                   ......                               ",
"                      .. .............                                                      ......                              ",
"                     .   ............                                                        ......                             ",
"                        ...........                                                            ......                           ",
"                       ...........                                                              ......                          ",
"                     .. .........                                                                .....                          ",
"                     . .........                                                                  .....                         ",
"                    . .........                                                                    .....                        ",
"                   . .........            ..................................                       ......                       ",
"                  . .........             ..................................                        ......                      ",
"                 .  ........              ..................................                         ......                     ",
"                   ........               ...                                ..                       .....                     ",
"                  ........                ...                               ....                       .....                    ",
"                 .........                ...                               ....                       ......                   ",
"                .........                 ...                               ....                        .....                   ",
"               . .......                  ...                                   ...                     ......                  ",
"               .........                  ...                                   ...                      .....                  ",
"              . .......                   ...                                   ...                       .....                 ",
"               ........                   ...             .........             .....                     .....                 ",
"               .......                    ...             .........                ...                     .....                ",
"              ........                    ...             .........                ...                     .....                ",
"              .......                     ...             .........                ...                     ......               ",
"             ........                     ...             ............             ......                   .....               ",
"             .......                      ...             ............             ......                   ......              ",
"             .......                      ...             ............             ......                    .....              ",
"             .......                      ...             ......   ...             ......                    .....              ",
"             ......                       ...             ......   ...             ......                    ......             ",
"             ......                       ...             ......   ...             ......                    ......             ",
"             ......                       ...             ......   ...             ......                     .....             ",
"            .......                       ...             ......   ...             ......                     .....             ",
"            ......                        ...             ......   ...             ......                     .....             ",
"            ......                        ...             ......   ...             ......                     ......            ",
"            ......                        ...             ......   ...             ......                     ......            ",
"           .......                        ...             ......   ...             ......                     ......            ",
"           .......                        ...             ......   ...             ......                     ......            ",
"           .......                        ...             ......   ...             ......                      .....            ",
"           .......                        ...             ......   ...             ......                      .....            ",
"           .......                        ...             ......   ...             ......                      .....            ",
"           ......                         ...             ......   ...             ......                      ......           ",
"           ......                         ...             ......   ...             ......                      ......           ",
"           ......                         ...             ......   ...             ......                      ......           ",
"           ......                         ...             ......   ...             ......                      ......           ",
"           ......                         ...             ......   ...             ......                     .......           ",
"           ......                         ...             ......   ...             ......                     .......           ",
"           ......                         ...             ......   ...             ......                     ......            ",
"            .....                         ...             ......   ...             ......                     ......            ",
"            ......                        ...             ......   ...             ......                     ......            ",
"            ......                        ...             ......   ...             ......                     ......            ",
"            ......                        ...             ......   ...             ......                     ......            ",
"            ......                        ...             ......   ...             ......                     ......            ",
"             .....                        ...             .........                ......                    .......            ",
"             .....                        ...             .........                ......                    ......             ",
"             ......                       ...             .........                ......                    ......             ",
"             ......                       ...             .........                ......                    ......             ",
"              .....                       ...                                      ......                   .......             ",
"              .....                       ...                                      ......                   .......             ",
"              ......                      ...                                      ......                  .......              ",
"               .....                      ...                                   .........                  ........             ",
"               .....                      ...                                   .........                  .......              ",
"               ......                     ...                                   .........                 ........              ",
"                .....                     ...                                  ..........                 .......               ",
"                ......                    ...                               ..........                   .......                ",
"                 .....                    ...                               ..........                   ....... .              ",
"                 ......                   ...                               ..........                  .........               ",
"                  .....                   ... .....................................                     .......                 ",
"                   .....                  .........................................                    .........                ",
"                   ......                 .........................................                   .........                 ",
"                    .....                 .........................................                   ........                  ",
"                    ......                   ...................................                     ........                   ",
"                     ......                  ...................................                    ........                    ",
"                      ......                 ...................................                   ........  .                  ",
"                       .....                                                                      ......... .                   ",
"                       ......                                                                    ...........                    ",
"                        ......                                                                  ......... .                     ",
"                         ......                                                                ......... ..                     ",
"                          ......                                                              ...........                       ",
"                           ......                                                            ...........                        ",
"                            ......                                                          ...........   .                     ",
"                             .......                                                      ............  ..                      ",
"                               ......                                                    .........*]^/..                        ",
"                                .......                                     .          ..........$(_:.                          ",
"                                 .......                 ..                  .   .   .............$                             ",
"                                   .......              ...                  .  .. .............     .                          ",
"                                    ........            ....                ..  ....................   .                        ",
"                                      ........          .....             ....................... ....                          ",
"                                        .........       . ....     ........................ .......                             ",
"                                          ...........    .  .................................  .                                ",
"                                            ..............    .............................                                     ",
"                                              ...............  ........................  ....       .                           ",
"                                                 .............. ........................    .......                             ",
"                                                      ........  ...................... ...                                      ",
"                                                              .........................  . .....                                ",
"                                                             ......................... .                                        ",
"                                                           ....<[}|............. ...    .                                       ",
"                                                     .  .......1234.............   ..    .                                      ",
"                                                     ..........5}|................  ..     .                                    ",
"                                                    .........             .....   .  ...                                        ",
"                                                    ........                ....        ...                                     ",
"                                                    .......                  ....                                               ",
"                                                    .......                    ...                                              ",
"                                                     .....                      ..                                              ",
"                                                     /67.                        ..                                             ",
"                                                      890                         .                                             ",
"                                                        ..                                                                      "};
