/* XPM */
static char * bitcoin32_xpm[] = {
"32 32 12 1",
" 	c None",
".	c #474344",
"+	c #231F20",
"@	c #221E1F",
"#	c #3E3A3B",
"$	c #211D1E",
"%	c #242021",
"&	c #1E1A1B",
"*	c #262223",
"=	c #363233",
"-	c #3A3738",
";	c #444142",
"                  .             ",
"            +    +@             ",
"           ++++#$+              ",
"        + +++++% ++             ",
"         +++++++++ +++          ",
"       +++++     +    +         ",
"      +++              ++       ",
"     +++                ++      ",
"     ++   +++++++++      ++     ",
"    ++    +        +      +     ",
"    ++    +         +     ++    ",
"   ++     +   +++    +     +    ",
"   ++     +   ++ +   +     ++   ",
"   ++     +   ++ +   +     ++   ",
"   +      +   ++ +   +      +   ",
"   +      +   ++ +   +      +   ",
"   +      +   ++ +   +      +   ",
"   +      +   ++ +   +      +   ",
"   +      +   ++     +     ++   ",
"   ++     +    +     +     ++   ",
"    +     +         ++     ++   ",
"    ++    +        +++    ++    ",
"     +    +++++++++++     ++    ",
"     ++    +++++++++     ++     ",
"      ++                +++     ",
"       ++              +&*      ",
"        ++    +     ++++=       ",
"          +++ ++++++++++        ",
"             ++ %+++++++        ",
"              +@-++++           ",
"             ++    +            ",
"             ;                  "};
